@startuml

!theme crt-green

skinparam linetype ortho

entity urna {
    * id_urna: number <<generated>>
    --
    public_key: text <<encrypted>>
    mac_address: text
    uuid_motherboard: uuid
    registered_at: datetime
    updated_at: datetime
}

entity casilla{
    * id_casilla : number
    --
    * entidad : text
    * municipio : text
    * localidad : text
    * distrito : text
    * seccion_electoral : text
    * tipo_casilla: text
}

entity usuario{
    * id_usuario : number <<generated>>
    * id_funcionario : number <<FK>>
    --
    * identificador_tarjeta : text
    * contraseña: text <<encrypted>>
}

entity permiso{
    * id_permiso : number <<generated>>
    --
    * nombre : text
    * descripcion : text
}

entity funcionario{
    * id_funcionario : number <<generated>>
    * id_tipo_funcionario: number <<FK>>
    --
    * clave_elector : text
    * nombre : text
    * apellido_paterno : text
    * apellido_materno : text
    * curp : text
    * fecha_nacimiento : date
    * sexo : text
    * entidad : text
    * municipio : text
    * localidad : text
    * direccion : text
    * calle : text
    * numero : text
}

entity tipos_funcionario{
    * id_tipo_funcionario : number <<generated>>
    --
    * nombre : text
    * description : text
}

entity eleccion {
    * id_eleccion : number <<generated>>
    * id_tipo_eleccion : number <<FK>>
    --
    * nombre : text
    * tipo : text        
    * fecha : date
}

entity tipos_eleccion{
    * id_tipo_eleccion : number <<generated>>
    --
    * nombre : text
    * description : text
}


entity boleta{
    * id_boleta: number <<generated>>
    * id_eleccion: number <<FK>>
    --
    * cantidad_maxima : number
    * votos_ejercidos : number
    * entidad : text
    * municipio : text
    * localidad : text
    * distrito : text
    * seccion_electoral : text
    * tipo_casilla: text
}

entity voto{
    * id_voto : number <<generated>>
    * candidato : number <<FK>>
    --
    * folio: number
    * fecha_hora_inicio_votacion: datetime
    * fecha_hora_voto: datetime
}

entity candidato{
    * id_candidato: number <<generated>>
    --
    * nombre : text
    * hipocoristico : text
    * cargo : text
    * descripcion: text
}

entity partido{
    * id_partido : number <<generated>>
    --
    * nombre : text
    * hipocoristico : text
    * uri_imagen : text
}

entity log_actividad{
    * id_log : number <<generated>>
    * id_usuario : number <<FK>>
    --
    * actividad : text
    * fecha_hora : datetime
}

usuario }|--|{ permiso
usuario ||--|| funcionario
funcionario ||--|| tipos_funcionario
funcionario }|--|| eleccion
eleccion ||--|| tipos_eleccion
boleta ||--|| eleccion
boleta ||--o{ candidato
boleta ||--o{ voto
voto ||--|| candidato
candidato }|--|{ partido
casilla ||--|{ funcionario
casilla ||--|{ eleccion
usuario ||--|{ log_actividad

@enduml
